999
"DXF R12 Output" (www.mydxf.blogspot.com)
 0 
SECTION
 2 
HEADER
 9 
$ACADVER
 1 
AC1009
 9 
$EXTMIN
 10 
 0 
 20 
 0 
 9 
$EXTMAX
 10 
 8.5 
 20 
 11 
 0 
ENDSEC
 0 
SECTION
 2 
ENTITIES
0
POLYLINE
8
Layer 1
62
7
70
0
10
0.000000
20
0.000000
66
1
0
VERTEX
8
Layer 1
10
120.563293
20
271.903311
70
0
0
VERTEX
8
Layer 1
10
129.823362
20
262.642889
70
0
0
VERTEX
8
Layer 1
10
151.077531
20
262.446039
70
0
0
VERTEX
8
Layer 1
10
172.332053
20
262.249189
70
0
0
VERTEX
8
Layer 1
10
176.741778
20
261.267760
70
0
0
VERTEX
8
Layer 1
10
180.612431
20
260.280154
70
0
0
VERTEX
8
Layer 1
10
184.366915
20
259.068763
70
0
0
VERTEX
8
Layer 1
10
187.998276
20
257.639771
70
0
0
VERTEX
8
Layer 1
10
191.499562
20
255.999357
70
0
0
VERTEX
8
Layer 1
10
194.863818
20
254.153703
70
0
0
VERTEX
8
Layer 1
10
198.084092
20
252.108990
70
0
0
VERTEX
8
Layer 1
10
201.153429
20
249.871398
70
0
0
VERTEX
8
Layer 1
10
204.064875
20
247.447109
70
0
0
VERTEX
8
Layer 1
10
206.811478
20
244.842304
70
0
0
VERTEX
8
Layer 1
10
209.386283
20
242.063163
70
0
0
VERTEX
8
Layer 1
10
211.782338
20
239.115869
70
0
0
VERTEX
8
Layer 1
10
213.992687
20
236.006601
70
0
0
VERTEX
8
Layer 1
10
216.010379
20
232.741541
70
0
0
VERTEX
8
Layer 1
10
217.828459
20
229.326870
70
0
0
VERTEX
8
Layer 1
10
219.439974
20
225.768769
70
0
0
VERTEX
8
Layer 1
10
220.837970
20
222.073419
70
0
0
VERTEX
8
Layer 1
10
221.826112
20
218.787060
70
0
0
VERTEX
8
Layer 1
10
222.689966
20
215.158000
70
0
0
VERTEX
8
Layer 1
10
223.348106
20
211.572199
70
0
0
VERTEX
8
Layer 1
10
223.719108
20
208.415619
70
0
0
VERTEX
8
Layer 1
10
223.837641
20
206.752623
70
0
0
VERTEX
8
Layer 1
10
178.067871
20
160.878783
70
0
0
VERTEX
8
Layer 1
10
132.298453
20
115.005296
70
0
0
VERTEX
8
Layer 1
10
145.436611
20
115.005296
70
0
0
VERTEX
8
Layer 1
10
158.574769
20
115.005296
70
0
0
VERTEX
8
Layer 1
10
200.643193
20
157.074778
70
0
0
VERTEX
8
Layer 1
10
242.711264
20
199.143907
70
0
0
VERTEX
8
Layer 1
10
242.711264
20
203.390296
70
0
0
VERTEX
8
Layer 1
10
242.634990
20
206.632903
70
0
0
VERTEX
8
Layer 1
10
242.408220
20
209.891225
70
0
0
VERTEX
8
Layer 1
10
241.515506
20
216.420675
70
0
0
VERTEX
8
Layer 1
10
240.057750
20
222.909967
70
0
0
VERTEX
8
Layer 1
10
238.059577
20
229.290419
70
0
0
VERTEX
8
Layer 1
10
235.545616
20
235.493353
70
0
0
VERTEX
8
Layer 1
10
232.540492
20
241.450087
70
0
0
VERTEX
8
Layer 1
10
229.068834
20
247.091942
70
0
0
VERTEX
8
Layer 1
10
225.155267
20
252.350238
70
0
0
VERTEX
8
Layer 1
10
220.964520
20
257.067963
70
0
0
VERTEX
8
Layer 1
10
216.417325
20
261.424482
70
0
0
VERTEX
8
Layer 1
10
211.545379
20
265.399670
70
0
0
VERTEX
8
Layer 1
10
206.380378
20
268.973402
70
0
0
VERTEX
8
Layer 1
10
200.954017
20
272.125553
70
0
0
VERTEX
8
Layer 1
10
195.297995
20
274.835999
70
0
0
VERTEX
8
Layer 1
10
189.444005
20
277.084614
70
0
0
VERTEX
8
Layer 1
10
183.423746
20
278.851274
70
0
0
VERTEX
8
Layer 1
10
177.529030
20
280.173133
70
0
0
VERTEX
8
Layer 1
10
174.583319
20
280.583511
70
0
0
VERTEX
8
Layer 1
10
171.003976
20
280.861315
70
0
0
VERTEX
8
Layer 1
10
160.040204
20
281.122591
70
0
0
VERTEX
8
Layer 1
10
140.829330
20
281.163734
70
0
0
VERTEX
8
Layer 1
10
111.303223
20
281.163734
70
0
0
VERTEX
8
Layer 1
10
120.563293
20
271.903311
70
0
0
SEQEND
8
Layer 1
0
POLYLINE
8
Layer 1
62
7
70
0
10
0.000000
20
0.000000
66
1
0
VERTEX
8
Layer 1
10
111.125070
20
281.254398
70
0
0
VERTEX
8
Layer 1
10
113.844547
20
278.348213
70
0
0
VERTEX
8
Layer 1
10
120.383023
20
271.729392
70
0
0
VERTEX
8
Layer 1
10
129.640976
20
262.466500
70
0
0
VERTEX
8
Layer 1
10
120.206634
20
253.027219
70
0
0
VERTEX
8
Layer 1
10
110.772292
20
243.587938
70
0
0
VERTEX
8
Layer 1
10
110.772292
20
201.345242
70
0
0
VERTEX
8
Layer 1
10
110.772292
20
159.102546
70
0
0
VERTEX
8
Layer 1
10
129.605698
20
159.102546
70
0
0
VERTEX
8
Layer 1
10
148.438752
20
159.102546
70
0
0
VERTEX
8
Layer 1
10
170.383660
20
181.062977
70
0
0
VERTEX
8
Layer 1
10
192.328568
20
203.023407
70
0
0
VERTEX
8
Layer 1
10
178.802707
20
203.114777
70
0
0
VERTEX
8
Layer 1
10
165.276493
20
203.206499
70
0
0
VERTEX
8
Layer 1
10
152.931027
20
190.855741
70
0
0
VERTEX
8
Layer 1
10
140.585914
20
178.505336
70
0
0
VERTEX
8
Layer 1
10
135.380321
20
178.505336
70
0
0
VERTEX
8
Layer 1
10
130.175082
20
178.505336
70
0
0
VERTEX
8
Layer 1
10
130.175082
20
220.328932
70
0
0
VERTEX
8
Layer 1
10
130.175082
20
262.152528
70
0
0
VERTEX
8
Layer 1
10
151.468409
20
262.092203
70
0
0
VERTEX
8
Layer 1
10
166.040610
20
262.113105
70
0
0
VERTEX
8
Layer 1
10
170.110731
20
262.169196
70
0
0
VERTEX
8
Layer 1
10
171.058862
20
262.206395
70
0
0
VERTEX
8
Layer 1
10
171.225828
20
262.227001
70
0
0
VERTEX
8
Layer 1
10
171.174588
20
262.248836
70
0
0
VERTEX
8
Layer 1
10
164.243780
20
262.402647
70
0
0
VERTEX
8
Layer 1
10
149.808589
20
262.466500
70
0
0
VERTEX
8
Layer 1
10
130.029385
20
262.466500
70
0
0
VERTEX
8
Layer 1
10
120.744621
20
271.726923
70
0
0
VERTEX
8
Layer 1
10
111.459856
20
280.987345
70
0
0
VERTEX
8
Layer 1
10
141.014186
20
281.166909
70
0
0
VERTEX
8
Layer 1
10
170.568163
20
281.346120
70
0
0
VERTEX
8
Layer 1
10
140.846616
20
281.431493
70
0
0
VERTEX
8
Layer 1
10
119.855840
20
281.414515
70
0
0
VERTEX
8
Layer 1
10
111.125070
20
281.254398
70
0
0
SEQEND
8
Layer 1
0
POLYLINE
8
Layer 1
62
7
70
0
10
0.000000
20
0.000000
66
1
0
VERTEX
8
Layer 1
10
135.205344
20
178.152558
70
0
0
VERTEX
8
Layer 1
10
140.585914
20
178.152558
70
0
0
VERTEX
8
Layer 1
10
152.929263
20
190.499788
70
0
0
VERTEX
8
Layer 1
10
165.272612
20
202.847018
70
0
0
VERTEX
8
Layer 1
10
178.502846
20
202.847018
70
0
0
VERTEX
8
Layer 1
10
191.732726
20
202.847018
70
0
0
VERTEX
8
Layer 1
10
170.038996
20
181.151171
70
0
0
VERTEX
8
Layer 1
10
148.345266
20
159.455324
70
0
0
VERTEX
8
Layer 1
10
129.735168
20
159.455324
70
0
0
VERTEX
8
Layer 1
10
111.125070
20
159.455324
70
0
0
VERTEX
8
Layer 1
10
111.125070
20
201.345242
70
0
0
VERTEX
8
Layer 1
10
111.125070
20
243.235160
70
0
0
VERTEX
8
Layer 1
10
120.385492
20
252.500521
70
0
0
VERTEX
8
Layer 1
10
129.645915
20
261.765883
70
0
0
VERTEX
8
Layer 1
10
129.735521
20
219.959220
70
0
0
VERTEX
8
Layer 1
10
129.825126
20
178.152558
70
0
0
VERTEX
8
Layer 1
10
135.205344
20
178.152558
70
0
0
SEQEND
8
Layer 1
0
POLYLINE
8
Layer 1
62
7
70
0
10
0.000000
20
0.000000
66
1
0
VERTEX
8
Layer 1
10
120.385492
20
252.500521
70
0
0
VERTEX
8
Layer 1
10
111.125070
20
243.235160
70
0
0
VERTEX
8
Layer 1
10
111.125070
20
201.345242
70
0
0
VERTEX
8
Layer 1
10
111.125070
20
159.455324
70
0
0
VERTEX
8
Layer 1
10
129.735168
20
159.455324
70
0
0
VERTEX
8
Layer 1
10
148.345266
20
159.455324
70
0
0
VERTEX
8
Layer 1
10
170.038996
20
181.151171
70
0
0
VERTEX
8
Layer 1
10
191.732726
20
202.847018
70
0
0
VERTEX
8
Layer 1
10
178.502846
20
202.847018
70
0
0
VERTEX
8
Layer 1
10
165.272612
20
202.847018
70
0
0
VERTEX
8
Layer 1
10
152.929263
20
190.499788
70
0
0
VERTEX
8
Layer 1
10
140.585914
20
178.152558
70
0
0
VERTEX
8
Layer 1
10
135.205344
20
178.152558
70
0
0
VERTEX
8
Layer 1
10
129.825126
20
178.152558
70
0
0
VERTEX
8
Layer 1
10
129.735521
20
219.959220
70
0
0
VERTEX
8
Layer 1
10
129.645915
20
261.765883
70
0
0
VERTEX
8
Layer 1
10
120.385492
20
252.500521
70
0
0
SEQEND
8
Layer 1
0
POLYLINE
8
Layer 1
62
7
70
0
10
0.000000
20
0.000000
66
1
0
VERTEX
8
Layer 1
10
125.395293
20
96.567001
70
0
0
VERTEX
8
Layer 1
10
125.318387
20
86.953801
70
0
0
VERTEX
8
Layer 1
10
125.412579
20
77.787217
70
0
0
VERTEX
8
Layer 1
10
182.474420
20
77.697964
70
0
0
VERTEX
8
Layer 1
10
222.774412
20
77.713707
70
0
0
VERTEX
8
Layer 1
10
239.536262
20
77.876823
70
0
0
VERTEX
8
Layer 1
10
236.763427
20
80.837468
70
0
0
VERTEX
8
Layer 1
10
230.096981
20
87.579276
70
0
0
VERTEX
8
Layer 1
10
220.657700
20
97.013618
70
0
0
VERTEX
8
Layer 1
10
173.112398
20
97.013618
70
0
0
VERTEX
8
Layer 1
10
135.040420
20
96.924321
70
0
0
VERTEX
8
Layer 1
10
127.559652
20
96.787548
70
0
0
VERTEX
8
Layer 1
10
125.395293
20
96.567001
70
0
0
SEQEND
8
Layer 1
0
POLYLINE
8
Layer 1
62
7
70
0
10
0.000000
20
0.000000
66
1
0
VERTEX
8
Layer 1
10
230.011256
20
87.312223
70
0
0
VERTEX
8
Layer 1
10
239.354934
20
77.963606
70
0
0
VERTEX
8
Layer 1
10
182.648340
20
77.963606
70
0
0
VERTEX
8
Layer 1
10
125.941746
20
77.963606
70
0
0
VERTEX
8
Layer 1
10
125.941746
20
87.312223
70
0
0
VERTEX
8
Layer 1
10
125.941746
20
96.660840
70
0
0
VERTEX
8
Layer 1
10
173.304662
20
96.660840
70
0
0
VERTEX
8
Layer 1
10
220.667578
20
96.660840
70
0
0
VERTEX
8
Layer 1
10
230.011256
20
87.312223
70
0
0
SEQEND
8
Layer 1
0
POLYLINE
8
Layer 1
62
7
70
0
10
0.000000
20
0.000000
66
1
0
VERTEX
8
Layer 1
10
125.941746
20
87.312223
70
0
0
VERTEX
8
Layer 1
10
125.941746
20
77.963606
70
0
0
VERTEX
8
Layer 1
10
182.648340
20
77.963606
70
0
0
VERTEX
8
Layer 1
10
239.354934
20
77.963606
70
0
0
VERTEX
8
Layer 1
10
230.011256
20
87.312223
70
0
0
VERTEX
8
Layer 1
10
220.667578
20
96.660840
70
0
0
VERTEX
8
Layer 1
10
173.304662
20
96.660840
70
0
0
VERTEX
8
Layer 1
10
125.941746
20
96.660840
70
0
0
VERTEX
8
Layer 1
10
125.941746
20
87.312223
70
0
0
SEQEND
8
Layer 1
0
POLYLINE
8
Layer 1
62
7
70
0
10
0.000000
20
0.000000
66
1
0
VERTEX
8
Layer 1
10
213.168929
20
144.638648
70
0
0
VERTEX
8
Layer 1
10
183.803335
20
115.181685
70
0
0
VERTEX
8
Layer 1
10
196.844832
20
115.089257
70
0
0
VERTEX
8
Layer 1
10
209.886682
20
114.996829
70
0
0
VERTEX
8
Layer 1
10
226.303206
20
131.437695
70
0
0
VERTEX
8
Layer 1
10
242.719731
20
147.878561
70
0
0
VERTEX
8
Layer 1
10
242.627303
20
160.987086
70
0
0
VERTEX
8
Layer 1
10
242.534875
20
174.095611
70
0
0
VERTEX
8
Layer 1
10
213.168929
20
144.638648
70
0
0
SEQEND
8
Layer 1
0
POLYLINE
8
Layer 1
62
7
70
0
10
0.000000
20
0.000000
66
1
0
VERTEX
8
Layer 1
10
152.223707
20
240.010416
70
0
0
VERTEX
8
Layer 1
10
150.175125
20
239.490069
70
0
0
VERTEX
8
Layer 1
10
148.801981
20
238.863403
70
0
0
VERTEX
8
Layer 1
10
147.385710
20
237.841184
70
0
0
VERTEX
8
Layer 1
10
146.023407
20
236.308711
70
0
0
VERTEX
8
Layer 1
10
145.049145
20
234.564406
70
0
0
VERTEX
8
Layer 1
10
144.463052
20
232.679078
70
0
0
VERTEX
8
Layer 1
10
144.265256
20
230.723536
70
0
0
VERTEX
8
Layer 1
10
144.455885
20
228.768589
70
0
0
VERTEX
8
Layer 1
10
145.035067
20
226.885046
70
0
0
VERTEX
8
Layer 1
10
146.002931
20
225.143718
70
0
0
VERTEX
8
Layer 1
10
147.359604
20
223.615412
70
0
0
VERTEX
8
Layer 1
10
148.721884
20
222.581623
70
0
0
VERTEX
8
Layer 1
10
150.178256
20
221.893017
70
0
0
VERTEX
8
Layer 1
10
151.840673
20
221.511129
70
0
0
VERTEX
8
Layer 1
10
153.821086
20
221.397496
70
0
0
VERTEX
8
Layer 1
10
155.723447
20
221.582235
70
0
0
VERTEX
8
Layer 1
10
157.467294
20
222.102887
70
0
0
VERTEX
8
Layer 1
10
159.023593
20
222.930142
70
0
0
VERTEX
8
Layer 1
10
160.363310
20
224.034688
70
0
0
VERTEX
8
Layer 1
10
161.457410
20
225.387216
70
0
0
VERTEX
8
Layer 1
10
162.276860
20
226.958413
70
0
0
VERTEX
8
Layer 1
10
162.792627
20
228.718970
70
0
0
VERTEX
8
Layer 1
10
162.975675
20
230.639574
70
0
0
VERTEX
8
Layer 1
10
162.889986
20
232.019233
70
0
0
VERTEX
8
Layer 1
10
162.629093
20
233.333994
70
0
0
VERTEX
8
Layer 1
10
162.201942
20
234.569098
70
0
0
VERTEX
8
Layer 1
10
161.617480
20
235.709788
70
0
0
VERTEX
8
Layer 1
10
160.884652
20
236.741304
70
0
0
VERTEX
8
Layer 1
10
160.012406
20
237.648887
70
0
0
VERTEX
8
Layer 1
10
159.009687
20
238.417779
70
0
0
VERTEX
8
Layer 1
10
157.885441
20
239.033221
70
0
0
VERTEX
8
Layer 1
10
156.393675
20
239.580650
70
0
0
VERTEX
8
Layer 1
10
154.820947
20
239.948724
70
0
0
VERTEX
8
Layer 1
10
153.365032
20
240.103346
70
0
0
VERTEX
8
Layer 1
10
152.223707
20
240.010416
70
0
0
SEQEND
8
Layer 1
0
POLYLINE
8
Layer 1
62
7
70
0
10
0.000000
20
0.000000
66
1
0
VERTEX
8
Layer 1
10
177.697806
20
161.027303
70
0
0
VERTEX
8
Layer 1
10
145.184992
20
128.304718
70
0
0
VERTEX
8
Layer 1
10
131.807386
20
114.548801
70
0
0
VERTEX
8
Layer 1
10
135.857189
20
114.372941
70
0
0
VERTEX
8
Layer 1
10
145.243641
20
114.299740
70
0
0
VERTEX
8
Layer 1
10
158.430836
20
114.299740
70
0
0
VERTEX
8
Layer 1
10
200.747263
20
156.673317
70
0
0
VERTEX
8
Layer 1
10
243.064042
20
199.046893
70
0
0
VERTEX
8
Layer 1
10
242.988195
20
203.328207
70
0
0
VERTEX
8
Layer 1
10
242.912347
20
207.609521
70
0
0
VERTEX
8
Layer 1
10
242.803692
20
203.376185
70
0
0
VERTEX
8
Layer 1
10
242.695036
20
199.142849
70
0
0
VERTEX
8
Layer 1
10
200.634726
20
157.074072
70
0
0
VERTEX
8
Layer 1
10
158.574769
20
115.005296
70
0
0
VERTEX
8
Layer 1
10
145.436611
20
115.005296
70
0
0
VERTEX
8
Layer 1
10
132.298453
20
115.005296
70
0
0
VERTEX
8
Layer 1
10
178.067871
20
160.876667
70
0
0
VERTEX
8
Layer 1
10
223.837641
20
207.002390
70
0
0
VERTEX
8
Layer 1
10
210.284131
20
193.602162
70
0
0
VERTEX
8
Layer 1
10
177.697806
20
161.027303
70
0
0
SEQEND
8
Layer 1
0
POLYLINE
8
Layer 1
62
7
70
0
10
0.000000
20
0.000000
66
1
0
VERTEX
8
Layer 1
10
212.813328
20
144.896176
70
0
0
VERTEX
8
Layer 1
10
191.822552
20
123.779899
70
0
0
VERTEX
8
Layer 1
10
183.091782
20
114.740007
70
0
0
VERTEX
8
Layer 1
10
183.708857
20
114.526108
70
0
0
VERTEX
8
Layer 1
10
185.846361
20
114.390889
70
0
0
VERTEX
8
Layer 1
10
196.400332
20
114.299740
70
0
0
VERTEX
8
Layer 1
10
209.708882
20
114.299740
70
0
0
VERTEX
8
Layer 1
10
226.198079
20
130.774825
70
0
0
VERTEX
8
Layer 1
10
237.798874
20
142.454864
70
0
0
VERTEX
8
Layer 1
10
242.535581
20
147.401253
70
0
0
VERTEX
8
Layer 1
10
237.656308
20
142.726503
70
0
0
VERTEX
8
Layer 1
10
226.138106
20
131.274712
70
0
0
VERTEX
8
Layer 1
10
209.891621
20
114.996829
70
0
0
VERTEX
8
Layer 1
10
196.845185
20
115.089257
70
0
0
VERTEX
8
Layer 1
10
183.799102
20
115.181685
70
0
0
VERTEX
8
Layer 1
10
213.080734
20
144.462259
70
0
0
VERTEX
8
Layer 1
10
233.786422
20
165.269282
70
0
0
VERTEX
8
Layer 1
10
242.448797
20
174.177455
70
0
0
VERTEX
8
Layer 1
10
240.136999
20
172.001515
70
0
0
VERTEX
8
Layer 1
10
233.778925
20
165.755454
70
0
0
VERTEX
8
Layer 1
10
212.813328
20
144.896176
70
0
0
SEQEND
8
Layer 1
0
POLYLINE
8
Layer 1
62
7
70
0
10
0.000000
20
0.000000
66
1
0
VERTEX
8
Layer 1
10
150.129970
20
239.900350
70
0
0
VERTEX
8
Layer 1
10
148.537761
20
239.030603
70
0
0
VERTEX
8
Layer 1
10
146.972606
20
237.773142
70
0
0
VERTEX
8
Layer 1
10
145.611446
20
236.293498
70
0
0
VERTEX
8
Layer 1
10
144.631219
20
234.757199
70
0
0
VERTEX
8
Layer 1
10
144.094203
20
233.049048
70
0
0
VERTEX
8
Layer 1
10
143.933424
20
230.716480
70
0
0
VERTEX
8
Layer 1
10
144.080240
20
228.630421
70
0
0
VERTEX
8
Layer 1
10
144.553652
20
226.881474
70
0
0
VERTEX
8
Layer 1
10
145.403103
20
225.346907
70
0
0
VERTEX
8
Layer 1
10
146.678037
20
223.903984
70
0
0
VERTEX
8
Layer 1
10
147.990371
20
222.649153
70
0
0
VERTEX
8
Layer 1
10
146.859718
20
223.963251
70
0
0
VERTEX
8
Layer 1
10
145.670260
20
225.633604
70
0
0
VERTEX
8
Layer 1
10
144.843277
20
227.423507
70
0
0
VERTEX
8
Layer 1
10
144.376847
20
229.282384
70
0
0
VERTEX
8
Layer 1
10
144.269048
20
231.159657
70
0
0
VERTEX
8
Layer 1
10
144.517957
20
233.004751
70
0
0
VERTEX
8
Layer 1
10
145.121652
20
234.767088
70
0
0
VERTEX
8
Layer 1
10
146.078210
20
236.396091
70
0
0
VERTEX
8
Layer 1
10
147.385710
20
237.841184
70
0
0
VERTEX
8
Layer 1
10
148.871453
20
238.879887
70
0
0
VERTEX
8
Layer 1
10
150.582540
20
239.576962
70
0
0
VERTEX
8
Layer 1
10
152.431606
20
239.938447
70
0
0
VERTEX
8
Layer 1
10
154.331291
20
239.970376
70
0
0
VERTEX
8
Layer 1
10
156.194232
20
239.678786
70
0
0
VERTEX
8
Layer 1
10
157.933066
20
239.069712
70
0
0
VERTEX
8
Layer 1
10
159.460432
20
238.149190
70
0
0
VERTEX
8
Layer 1
10
160.688968
20
236.923256
70
0
0
VERTEX
8
Layer 1
10
161.438842
20
236.070724
70
0
0
VERTEX
8
Layer 1
10
161.863013
20
235.828586
70
0
0
VERTEX
8
Layer 1
10
161.857429
20
236.056570
70
0
0
VERTEX
8
Layer 1
10
161.607006
20
236.443313
70
0
0
VERTEX
8
Layer 1
10
160.571405
20
237.511602
70
0
0
VERTEX
8
Layer 1
10
159.155729
20
238.670510
70
0
0
VERTEX
8
Layer 1
10
157.759499
20
239.557097
70
0
0
VERTEX
8
Layer 1
10
155.941315
20
240.218445
70
0
0
VERTEX
8
Layer 1
10
153.965372
20
240.500513
70
0
0
VERTEX
8
Layer 1
10
151.979111
20
240.396686
70
0
0
VERTEX
8
Layer 1
10
150.129970
20
239.900350
70
0
0
SEQEND
8
Layer 1
0
POLYLINE
8
Layer 1
62
7
70
0
10
0.000000
20
0.000000
66
1
0
VERTEX
8
Layer 1
10
189.794564
20
277.181929
70
0
0
VERTEX
8
Layer 1
10
193.675122
20
275.525989
70
0
0
VERTEX
8
Layer 1
10
199.071512
20
273.104069
70
0
0
VERTEX
8
Layer 1
10
204.510963
20
270.129896
70
0
0
VERTEX
8
Layer 1
10
209.735969
20
266.756732
70
0
0
VERTEX
8
Layer 1
10
214.489024
20
263.137837
70
0
0
VERTEX
8
Layer 1
10
216.046759
20
261.919915
70
0
0
VERTEX
8
Layer 1
10
216.278683
20
261.812918
70
0
0
VERTEX
8
Layer 1
10
216.076525
20
262.086558
70
0
0
VERTEX
8
Layer 1
10
213.240614
20
264.613551
70
0
0
VERTEX
8
Layer 1
10
209.094387
20
267.613619
70
0
0
VERTEX
8
Layer 1
10
204.249990
20
270.674145
70
0
0
VERTEX
8
Layer 1
10
199.319570
20
273.382510
70
0
0
VERTEX
8
Layer 1
10
196.027837
20
274.931596
70
0
0
VERTEX
8
Layer 1
10
192.797984
20
276.298617
70
0
0
VERTEX
8
Layer 1
10
190.447672
20
277.157438
70
0
0
VERTEX
8
Layer 1
10
189.857864
20
277.294358
70
0
0
VERTEX
8
Layer 1
10
189.754012
20
277.271860
70
0
0
VERTEX
8
Layer 1
10
189.794564
20
277.181929
70
0
0
SEQEND
8
Layer 1
0
POLYLINE
8
Layer 1
62
7
70
0
10
0.000000
20
0.000000
66
1
0
VERTEX
8
Layer 1
10
194.865748
20
253.915514
70
0
0
VERTEX
8
Layer 1
10
199.895403
20
250.279404
70
0
0
VERTEX
8
Layer 1
10
204.413420
20
246.492580
70
0
0
VERTEX
8
Layer 1
10
208.347104
20
242.620891
70
0
0
VERTEX
8
Layer 1
10
211.623761
20
238.730185
70
0
0
VERTEX
8
Layer 1
10
213.240410
20
236.674504
70
0
0
VERTEX
8
Layer 1
10
213.706314
20
236.152828
70
0
0
VERTEX
8
Layer 1
10
213.846615
20
236.084350
70
0
0
VERTEX
8
Layer 1
10
213.143347
20
237.246643
70
0
0
VERTEX
8
Layer 1
10
211.595759
20
239.329026
70
0
0
VERTEX
8
Layer 1
10
207.842334
20
243.834177
70
0
0
VERTEX
8
Layer 1
10
205.006511
20
246.612976
70
0
0
VERTEX
8
Layer 1
10
201.659414
20
249.466719
70
0
0
VERTEX
8
Layer 1
10
198.347044
20
251.957321
70
0
0
VERTEX
8
Layer 1
10
195.615401
20
253.646697
70
0
0
VERTEX
8
Layer 1
10
194.813140
20
254.020025
70
0
0
VERTEX
8
Layer 1
10
194.720298
20
254.031865
70
0
0
VERTEX
8
Layer 1
10
194.865748
20
253.915514
70
0
0
SEQEND
8
Layer 1
0
POLYLINE
8
Layer 1
62
7
70
0
10
0.000000
20
0.000000
66
1
0
VERTEX
8
Layer 1
10
217.655559
20
260.446140
70
0
0
VERTEX
8
Layer 1
10
218.107159
20
259.792266
70
0
0
VERTEX
8
Layer 1
10
218.662741
20
259.323601
70
0
0
VERTEX
8
Layer 1
10
220.124614
20
257.957468
70
0
0
VERTEX
8
Layer 1
10
222.651734
20
255.185603
70
0
0
VERTEX
8
Layer 1
10
225.415325
20
251.949262
70
0
0
VERTEX
8
Layer 1
10
227.586613
20
249.189700
70
0
0
VERTEX
8
Layer 1
10
231.175071
20
243.851816
70
0
0
VERTEX
8
Layer 1
10
232.386202
20
242.027248
70
0
0
VERTEX
8
Layer 1
10
232.688604
20
241.654913
70
0
0
VERTEX
8
Layer 1
10
232.721297
20
241.735148
70
0
0
VERTEX
8
Layer 1
10
232.047254
20
243.065446
70
0
0
VERTEX
8
Layer 1
10
230.775153
20
245.114188
70
0
0
VERTEX
8
Layer 1
10
227.092018
20
250.363040
70
0
0
VERTEX
8
Layer 1
10
224.469064
20
253.547308
70
0
0
VERTEX
8
Layer 1
10
221.185676
20
257.182988
70
0
0
VERTEX
8
Layer 1
10
218.496345
20
259.929469
70
0
0
VERTEX
8
Layer 1
10
217.766478
20
260.550319
70
0
0
VERTEX
8
Layer 1
10
217.623850
20
260.599332
70
0
0
VERTEX
8
Layer 1
10
217.655559
20
260.446140
70
0
0
SEQEND
8
Layer 1
0
POLYLINE
8
Layer 1
62
7
70
0
10
0.000000
20
0.000000
66
1
0
VERTEX
8
Layer 1
10
233.657922
20
239.624124
70
0
0
VERTEX
8
Layer 1
10
235.979642
20
234.699740
70
0
0
VERTEX
8
Layer 1
10
238.001325
20
229.658146
70
0
0
VERTEX
8
Layer 1
10
239.066318
20
226.914239
70
0
0
VERTEX
8
Layer 1
10
239.394208
20
226.173879
70
0
0
VERTEX
8
Layer 1
10
239.519329
20
226.013949
70
0
0
VERTEX
8
Layer 1
10
239.296008
20
227.018446
70
0
0
VERTEX
8
Layer 1
10
238.668268
20
228.847550
70
0
0
VERTEX
8
Layer 1
10
236.697325
20
233.797819
70
0
0
VERTEX
8
Layer 1
10
234.602094
20
238.501232
70
0
0
VERTEX
8
Layer 1
10
233.818994
20
240.021766
70
0
0
VERTEX
8
Layer 1
10
233.378169
20
240.594264
70
0
0
VERTEX
8
Layer 1
10
233.373583
20
240.309219
70
0
0
VERTEX
8
Layer 1
10
233.657922
20
239.624124
70
0
0
SEQEND
8
Layer 1
0
POLYLINE
8
Layer 1
62
7
70
0
10
0.000000
20
0.000000
66
1
0
VERTEX
8
Layer 1
10
240.062607
20
223.660920
70
0
0
VERTEX
8
Layer 1
10
241.102596
20
218.369250
70
0
0
VERTEX
8
Layer 1
10
242.126358
20
213.077580
70
0
0
VERTEX
8
Layer 1
10
242.174529
20
212.893375
70
0
0
VERTEX
8
Layer 1
10
242.194753
20
213.043802
70
0
0
VERTEX
8
Layer 1
10
242.148583
20
214.201178
70
0
0
VERTEX
8
Layer 1
10
241.516361
20
218.597718
70
0
0
VERTEX
8
Layer 1
10
240.425615
20
222.955364
70
0
0
VERTEX
8
Layer 1
10
240.100707
20
223.817465
70
0
0
VERTEX
8
Layer 1
10
240.039853
20
223.878099
70
0
0
VERTEX
8
Layer 1
10
240.062607
20
223.660920
70
0
0
SEQEND
8
Layer 1
0
POLYLINE
8
Layer 1
62
7
70
0
10
0.000000
20
0.000000
66
1
0
VERTEX
8
Layer 1
10
215.001258
20
233.891482
70
0
0
VERTEX
8
Layer 1
10
218.030562
20
228.070645
70
0
0
VERTEX
8
Layer 1
10
219.495870
20
225.140736
70
0
0
VERTEX
8
Layer 1
10
220.115833
20
224.041215
70
0
0
VERTEX
8
Layer 1
10
219.436620
20
226.000478
70
0
0
VERTEX
8
Layer 1
10
217.784367
20
229.475142
70
0
0
VERTEX
8
Layer 1
10
215.919721
20
232.959994
70
0
0
VERTEX
8
Layer 1
10
214.603324
20
234.949816
70
0
0
VERTEX
8
Layer 1
10
214.460317
20
235.030018
70
0
0
VERTEX
8
Layer 1
10
214.487701
20
234.857212
70
0
0
VERTEX
8
Layer 1
10
215.001258
20
233.891482
70
0
0
SEQEND
8
Layer 1
0
POLYLINE
8
Layer 1
62
7
70
0
10
0.000000
20
0.000000
66
1
0
VERTEX
8
Layer 1
10
148.687108
20
222.264272
70
0
0
VERTEX
8
Layer 1
10
149.351521
20
221.867794
70
0
0
VERTEX
8
Layer 1
10
150.677128
20
221.354105
70
0
0
VERTEX
8
Layer 1
10
152.281877
20
220.998791
70
0
0
VERTEX
8
Layer 1
10
154.005456
20
220.919835
70
0
0
VERTEX
8
Layer 1
10
155.686240
20
221.111812
70
0
0
VERTEX
8
Layer 1
10
157.162599
20
221.569299
70
0
0
VERTEX
8
Layer 1
10
157.620968
20
221.793231
70
0
0
VERTEX
8
Layer 1
10
157.623062
20
221.869557
70
0
0
VERTEX
8
Layer 1
10
156.037237
20
221.581646
70
0
0
VERTEX
8
Layer 1
10
154.356382
20
221.341851
70
0
0
VERTEX
8
Layer 1
10
152.744319
20
221.347358
70
0
0
VERTEX
8
Layer 1
10
151.182659
20
221.599655
70
0
0
VERTEX
8
Layer 1
10
149.653014
20
222.100230
70
0
0
VERTEX
8
Layer 1
10
148.890925
20
222.345234
70
0
0
VERTEX
8
Layer 1
10
148.703390
20
222.348178
70
0
0
VERTEX
8
Layer 1
10
148.687108
20
222.264272
70
0
0
SEQEND
8
Layer 1
0
POLYLINE
8
Layer 1
62
7
70
0
10
0.000000
20
0.000000
66
1
0
VERTEX
8
Layer 1
10
182.739004
20
279.062235
70
0
0
VERTEX
8
Layer 1
10
185.706043
20
278.339526
70
0
0
VERTEX
8
Layer 1
10
187.142732
20
278.105502
70
0
0
VERTEX
8
Layer 1
10
187.062748
20
278.217384
70
0
0
VERTEX
8
Layer 1
10
186.546190
20
278.419270
70
0
0
VERTEX
8
Layer 1
10
184.631261
20
278.979465
70
0
0
VERTEX
8
Layer 1
10
180.269558
20
279.930422
70
0
0
VERTEX
8
Layer 1
10
179.973280
20
279.924645
70
0
0
VERTEX
8
Layer 1
10
180.340114
20
279.759060
70
0
0
VERTEX
8
Layer 1
10
182.739004
20
279.062235
70
0
0
SEQEND
8
Layer 1
0
POLYLINE
8
Layer 1
62
7
70
0
10
0.000000
20
0.000000
66
1
0
VERTEX
8
Layer 1
10
220.877481
20
221.544252
70
0
0
VERTEX
8
Layer 1
10
221.902301
20
217.310916
70
0
0
VERTEX
8
Layer 1
10
222.606269
20
214.867355
70
0
0
VERTEX
8
Layer 1
10
222.755384
20
214.593065
70
0
0
VERTEX
8
Layer 1
10
222.746146
20
215.013273
70
0
0
VERTEX
8
Layer 1
10
221.780063
20
219.035868
70
0
0
VERTEX
8
Layer 1
10
221.183946
20
220.957621
70
0
0
VERTEX
8
Layer 1
10
220.977396
20
221.477612
70
0
0
VERTEX
8
Layer 1
10
220.877481
20
221.544252
70
0
0
SEQEND
8
Layer 1
 0 
ENDSEC
 0 
EOF